<svg width="487" height="413" viewBox="0 0 487 413" fill="none" xmlns="http://www.w3.org/2000/svg">
<path d="M90.9219 19.9792H126.922V55.974H90.9219V19.9792Z" fill="#39AD60"/>
<path d="M75.776 65.6355V96.6928H44.7188V65.6355H75.776Z" fill="#39AD60"/>
<path d="M75.776 153.417H44.7188V122.354H75.776V153.417Z" fill="#39AD60"/>
<path d="M44.7188 122.354H19.0574V96.6927H44.7188V122.354Z" fill="#39AD60"/>
<path d="M25.0417 65.6355H4.77612V45.3646H25.0417V65.6355Z" fill="#39AD60"/>
<mask id="mask0_13_3" style="mask-type:luminance" maskUnits="userSpaceOnUse" x="0" y="4" width="15" height="17">
<path d="M0 4.72925H14.9063V20.7292H0V4.72925Z" fill="white"/>
</mask>
<g mask="url(#mask0_13_3)">
<path d="M13.6562 5.8855V19.4428H0.098877V5.8855H13.6562Z" fill="#39AD60"/>
</g>
<path d="M34.5835 25.1042H54.8543V45.3647H34.5835V25.1042Z" fill="#39AD60"/>
<mask id="mask1_13_3" style="mask-type:luminance" maskUnits="userSpaceOnUse" x="73" y="0" width="414" height="413">
<path d="M73.573 0H487V413H73.573V0Z" fill="white"/>
</mask>
<g mask="url(#mask1_13_3)">
<path d="M104.703 190.068C104.703 190.068 277.005 142.146 298.589 332.792C255.63 246.906 151.021 228.953 151.021 228.953C237.167 260.885 271.771 309.974 283.786 332.823C114.214 329.479 104.703 190.068 104.703 190.068ZM348.703 146.781C348.703 146.781 290.729 194.911 294.766 262.969C240.438 138.063 363.401 106.438 363.401 106.438C363.401 106.438 406.99 195.552 303.88 257.74C303.172 239.427 307.047 196.964 348.703 146.781ZM419.734 251.495C419.734 251.495 337.818 265.547 304.182 332.802C321.083 183.521 455.995 221.047 455.995 221.047C455.995 221.047 448.552 330.208 315.771 332.823C325.182 314.932 352.276 276.495 419.734 251.495ZM263.75 210.729C263.708 152.432 211.75 114.313 211.75 114.313C249.885 155.016 255.37 191.068 255.698 206.734C164.5 158.932 197.146 80.625 197.146 80.625C197.146 80.625 303.729 101.328 263.75 210.729ZM80.5052 153.688C76.026 170.62 73.625 188.391 73.625 206.724C73.625 320.896 166.177 413.453 280.349 413.453C394.521 413.453 487.078 320.896 487.078 206.724C487.078 92.5521 394.521 0 280.349 0C225.307 0 175.313 21.5313 138.271 56.6042V79.9688H159.813V115.964H123.818V84.2708H87.8177V117.693H110.797V153.688H80.5052Z" fill="#39AD60"/>
</g>
</svg>
